HIERARCHY
ROOT hip
{
  OFFSET 0 0 0
  CHANNELS 6 Xposition Yposition Zposition Zrotation Yrotation Xrotation
  JOINT abdomen
  {
    OFFSET 0 20.6881 -0.73152
    CHANNELS 3 Zrotation Xrotation Yrotation
    JOINT chest
    {
      OFFSET 0 11.7043 -0.48768
      CHANNELS 3 Zrotation Xrotation Yrotation
      JOINT neck
      {
        OFFSET 0 22.1894 -2.19456
        CHANNELS 3 Zrotation Xrotation Yrotation
        JOINT head
        {
          OFFSET -0.24384 7.07133 1.2192
          CHANNELS 3 Zrotation Xrotation Yrotation
          JOINT leftEye
          {
            OFFSET 4.14528 8.04674 8.04672
            CHANNELS 3 Zrotation Xrotation Yrotation
            End Site
            {
              OFFSET 1 0 0
            }
          }
          JOINT rightEye
          {
            OFFSET -3.6576 8.04674 8.04672
            CHANNELS 3 Zrotation Xrotation Yrotation
            End Site
            {
              OFFSET 1 0 0
            }
          }
        }
      }
      JOINT rCollar
      {
        OFFSET -2.68224 19.2634 -4.8768
        CHANNELS 3 Zrotation Xrotation Yrotation
        JOINT rShldr
        {
          OFFSET -8.77824 -1.95073 1.46304
          CHANNELS 3 Zrotation Xrotation Yrotation
          JOINT rForeArm
          {
            OFFSET -28.1742 -1.7115 0.48768
            CHANNELS 3 Zrotation Xrotation Yrotation
            JOINT rHand
            {
              OFFSET -22.5879 0.773209 7.07136
              CHANNELS 3 Zrotation Xrotation Yrotation
              JOINT rThumb1
              {
                OFFSET -1.2192 -0.487915 3.41376
                CHANNELS 3 Zrotation Xrotation Yrotation
                JOINT rThumb2
                {
                  OFFSET -3.37035 -0.52449 3.41376
                  CHANNELS 3 Zrotation Xrotation Yrotation
                  End Site
                  {
                    OFFSET -1.78271 -1.18214 1.43049
                  }
                }
              }
              JOINT rIndex1
              {
                OFFSET -7.75947 0.938293 5.60832
                CHANNELS 3 Zrotation Xrotation Yrotation
                JOINT rIndex2
                {
                  OFFSET -2.54057 -0.884171 1.56538
                  CHANNELS 3 Zrotation Xrotation Yrotation
                  End Site
                  {
                    OFFSET -1.62519 -0.234802 1.16502
                  }
                }
              }
              JOINT rMid1
              {
                OFFSET -8.24714 1.18213 3.41376
                CHANNELS 3 Zrotation Xrotation Yrotation
                JOINT rMid2
                {
                  OFFSET -3.10165 -0.590103 1.0647
                  CHANNELS 3 Zrotation Xrotation Yrotation
                  End Site
                  {
                    OFFSET -2.48547 -0.328903 0.83742
                  }
                }
              }
              JOINT rRing1
              {
                OFFSET -8.82822 0.546677 1.51678
                CHANNELS 3 Zrotation Xrotation Yrotation
                JOINT rRing2
                {
                  OFFSET -2.60934 -0.819778 -0.0198488
                  CHANNELS 3 Zrotation Xrotation Yrotation
                  End Site
                  {
                    OFFSET -2.33842 -0.294052 0.168128
                  }
                }
              }
              JOINT rPinky1
              {
                OFFSET -8.27202 -0.0477905 -0.4584
                CHANNELS 3 Zrotation Xrotation Yrotation
                JOINT rPinky2
                {
                  OFFSET -1.82734 -0.647385 -0.700984
                  CHANNELS 3 Zrotation Xrotation Yrotation
                  End Site
                  {
                    OFFSET -1.69225 -0.51767 -0.607171
                  }
                }
              }
            }
          }
        }
      }
      JOINT lCollar
      {
        OFFSET 2.68224 19.2634 -4.8768
        CHANNELS 3 Zrotation Xrotation Yrotation
        JOINT lShldr
        {
          OFFSET 8.77824 -1.95073 1.46304
          CHANNELS 3 Zrotation Xrotation Yrotation
          JOINT lForeArm
          {
            OFFSET 28.1742 -1.7115 0.48768
            CHANNELS 3 Zrotation Xrotation Yrotation
            JOINT lHand
            {
              OFFSET 22.5879 0.773209 7.07136
              CHANNELS 3 Zrotation Xrotation Yrotation
              JOINT lThumb1
              {
                OFFSET 1.2192 -0.487915 3.41376
                CHANNELS 3 Zrotation Xrotation Yrotation
                JOINT lThumb2
                {
                  OFFSET 3.37035 -0.52449 3.41376
                  CHANNELS 3 Zrotation Xrotation Yrotation
                  End Site
                  {
                    OFFSET 1.78271 -1.18214 1.43049
                  }
                }
              }
              JOINT lIndex1
              {
                OFFSET 7.75947 0.938293 5.60832
                CHANNELS 3 Zrotation Xrotation Yrotation
                JOINT lIndex2
                {
                  OFFSET 2.54057 -0.884171 1.56538
                  CHANNELS 3 Zrotation Xrotation Yrotation
                  End Site
                  {
                    OFFSET 1.62519 -0.234802 1.16502
                  }
                }
              }
              JOINT lMid1
              {
                OFFSET 8.24714 1.18213 3.41376
                CHANNELS 3 Zrotation Xrotation Yrotation
                JOINT lMid2
                {
                  OFFSET 3.10165 -0.590103 1.0647
                  CHANNELS 3 Zrotation Xrotation Yrotation
                  End Site
                  {
                    OFFSET 2.48547 -0.328903 0.83742
                  }
                }
              }
              JOINT lRing1
              {
                OFFSET 8.82822 0.546677 1.51678
                CHANNELS 3 Zrotation Xrotation Yrotation
                JOINT lRing2
                {
                  OFFSET 2.60934 -0.819778 -0.0198488
                  CHANNELS 3 Zrotation Xrotation Yrotation
                  End Site
                  {
                    OFFSET 2.33842 -0.294052 0.168128
                  }
                }
              }
              JOINT lPinky1
              {
                OFFSET 8.27202 -0.0477905 -0.4584
                CHANNELS 3 Zrotation Xrotation Yrotation
                JOINT lPinky2
                {
                  OFFSET 1.82734 -0.647385 -0.700984
                  CHANNELS 3 Zrotation Xrotation Yrotation
                  End Site
                  {
                    OFFSET 1.69225 -0.51767 -0.607171
                  }
                }
              }
            }
          }
        }
      }
    }
  }
  JOINT rButtock
  {
    OFFSET -8.77824 4.35084 1.2192
    CHANNELS 3 Zrotation Xrotation Yrotation
    JOINT rThigh
    {
      OFFSET 0 -1.70687 -2.19456
      CHANNELS 3 Zrotation Xrotation Yrotation
      JOINT rShin
      {
        OFFSET 0 -36.8199 0.73152
        CHANNELS 3 Zrotation Xrotation Yrotation
        JOINT rFoot
        {
          OFFSET 0.73152 -45.1104 -5.12064
          CHANNELS 3 Zrotation Xrotation Yrotation
          End Site
          {
            OFFSET -1.1221 -3.69964 12.103
          }
        }
      }
    }
  }
  JOINT lButtock
  {
    OFFSET 8.77824 4.35084 1.2192
    CHANNELS 3 Zrotation Xrotation Yrotation
    JOINT lThigh
    {
      OFFSET 0 -1.70687 -2.19456
      CHANNELS 3 Zrotation Xrotation Yrotation
      JOINT lShin
      {
        OFFSET 0 -36.8199 0.73152
        CHANNELS 3 Zrotation Xrotation Yrotation
        JOINT lFoot
        {
          OFFSET -0.73152 -45.1104 -5.12064
          CHANNELS 3 Zrotation Xrotation Yrotation
          End Site
          {
            OFFSET 1.1221 -3.69964 12.103
          }
        }
      }
    }
  }
}
MOTION
Frames:	5
Frame Time:	0.03333
-5.1722 71.42150000000001 1.9227999999999998 -177.126934 -32.019227 -175.393814 -2.928577 -0.109405 -90.051739 3.567683 1.129168 90.66651 4.49825 25.357657 103.161343 -28.887514 11.40576 -139.882049 0.000367 0.0 0.001241 0.000367 0.0 0.001241 -9.6519 34.83607 11.199722 -50.460039 51.865883 122.688277 -111.229464 -71.854141 -85.219727 -0.583221 1.666928 -0.082137 -94.792232 37.8289 54.283416 -3.484309 -17.396838 26.721247 -151.353005 -17.158228 121.133649 106.091692 -71.09709 52.01334 -36.035963 51.723162 29.832253 3.081006 0.958052 0.197886 -0.013905 -1.323283 -0.415041 11.08418 -10.900657 -1.381644 31.496306 83.082841 6.667557 -129.309632 -28.645175 -126.157966 82.877518 68.300368 -86.00059 0.627199 -3.672363 -78.837524 -22.23363 78.653676 79.006779 -148.395388 -41.356627 -136.70408 174.088645 -11.753478 -89.874819 77.89394 6.894526 -25.307506 153.45418 -21.067825 -121.743622 -145.427566 -67.230552 -86.927299 -1.280983 -3.803122 0.680335 88.70531 64.083336 -80.420634 145.120043 0.185333 179.187015 -11.907854 29.602428 5.638413 4.581925 -10.700558 4.292453 22.582339 -40.200764 23.531963 -179.997265 75.749185 -0.002822 167.8146 51.657227 55.277588 16.557384 31.719717 -80.175057 73.80417 12.061502 3.683868 0.000334 0.001415 -0.00043 6.273162 -16.961502 -0.0 6.878977 44.148168 134.20189 -176.05102 21.809238 109.900772
-5.1812 71.41539999999999 1.8881 -177.128757 -31.976862 -175.388853 -2.934291 -0.155934 -91.329728 3.479071 1.229889 91.851141 -15.016668 31.158303 -117.615307 26.60994 29.363157 74.998002 -0.000989 0.0 -0.001922 -0.000749 0.0 -0.001318 2.460086 -18.216348 -3.66898 -94.561217 -26.171567 -155.003714 -4.861888 -16.159642 -68.899855 162.957845 -35.021136 139.812142 -171.603207 -9.286245 89.950492 -91.005405 10.676596 35.020821 11.981537 -21.346767 -5.062319 10.006767 5.773381 -0.232991 -149.29549 22.371426 135.89216 167.422044 -64.000511 132.450185 0.0032 1.771279 0.557226 -156.465109 -19.250083 174.116648 -5.515075 -12.596532 -5.174271 41.756523 82.652403 -4.40678 13.743736 42.43154 -15.569224 -30.378484 32.059989 -65.76145 -162.477398 54.428911 -136.94806 -155.754821 -30.93695 -142.968645 0.441682 0.435219 -0.069798 37.28696 26.047817 -33.563309 -11.982922 -21.346406 5.061942 164.757559 -21.854737 -110.227218 164.638671 -19.283283 -144.734656 132.04057 49.695541 -120.8023 145.099457 -1.522025 178.649834 6.932349 -61.246373 28.035596 152.201374 37.330504 147.581064 -1.380099 -1.157381 2.248799 -0.001122 0.000121 -0.001122 -7.31503 -22.966978 -3.001917 -7.546002 31.682763 28.259249 -160.520202 -19.71812 39.587989 0.002608 0.001591 0.002608 6.909598 -17.101115 -32.898586 -20.003079 38.468486 148.634421 -122.548124 -67.825119 141.1067
-5.1895 71.4094 1.8541999999999998 -177.131569 -31.938774 -175.388657 -5.328911 2.281976 -0.009707 3.564514 -5.965736 0.675223 -0.998348 16.258073 41.483869 -13.64249 -16.21305 -82.732502 -0.000747 0.0 -0.000335 -0.000747 0.0 -0.000335 -159.220643 -48.028531 170.415017 -49.511933 -5.757141 -27.403929 -68.145607 -44.961448 -108.143298 85.369852 -70.738622 70.065507 -89.13606 38.426989 50.299178 -126.704203 -18.291176 77.390582 -140.164496 2.32597 115.877325 -63.597428 56.773703 45.587621 -8.30581 20.652567 5.560941 -163.180262 -4.725205 143.333173 -0.015018 -1.323136 -0.415973 -54.308391 -86.699337 -75.926695 -23.839595 -36.726162 -22.934456 -114.832414 -41.930902 -114.33524 9.652079 34.836075 -11.199613 -91.030754 -12.064188 -39.458397 91.846695 47.288427 -82.617579 -18.830373 -28.279117 -14.951816 121.364768 30.330232 -71.958514 -25.371231 -38.634613 -27.027982 138.094444 5.495629 -114.616227 172.310649 -31.595484 -117.54733 160.674133 -6.667596 -143.245501 42.49761 58.27349 -36.597569 145.098127 -1.521637 178.649055 15.957347 -68.335846 37.233336 -12.252138 41.424918 -10.281168 -64.169489 85.61043 26.626798 179.998047 75.751215 0.002015 168.969093 52.076849 8.607424 -3.348515 41.569392 130.521529 -108.55157 -24.927879 172.112085 -0.000574 0.001648 -0.0 7.268269 -18.614522 -122.213562 -38.244621 -13.655609 -170.384023 4.602636 -31.976889 -65.223812
-5.1984 71.404 1.8182 -177.140145 -31.902039 -175.391955 -7.737555 -0.158043 91.163011 -3.719185 -5.872857 -91.118896 -16.542503 21.087592 -54.404507 30.291733 -0.607924 17.305094 -4.1e-05 -0.0 8.5e-05 -4.1e-05 -0.0 8.5e-05 -155.548678 -3.804639 161.898779 70.876632 -77.740209 121.844255 -3.22044 -82.639132 26.718197 -6.824084 21.233396 0.545842 51.059984 -41.203937 12.856477 -109.341554 32.388548 82.969983 -77.666133 43.029674 64.539169 8.18089 -3.518903 -4.841923 -89.835785 60.701295 81.262379 -86.699256 63.998732 78.7072 0.00056 0.022794 0.005982 -155.99812 -52.386844 178.589598 -156.380471 53.734041 -150.119428 72.298119 84.435806 -34.843353 147.865767 28.560481 -152.691433 -107.934591 -23.223884 -144.735108 -171.692589 14.444188 -121.90034 -154.81192 -32.511152 -142.192529 164.492912 -2.167187 -89.561524 -176.75433 -19.637573 -91.315531 14.229998 19.203054 -9.559569 74.849355 48.696786 -56.239125 -1.281131 -3.803196 0.67911 42.079677 58.557925 -36.09661 145.116296 -0.356972 179.017574 -12.111497 48.568412 3.338595 -1.48157 4.003769 -1.360695 166.140371 70.957573 148.713305 -0.008978 0.000571 -0.004489 -7.421273 -25.282111 -180.0 3.384665 -35.277018 -138.376082 -79.12808 33.146238 5.82283 -0.000218 -0.001691 -0.0 5.844739 -16.865475 19.434413 8.990944 36.426211 -103.554926 45.207152 -49.117186 128.72708
-5.2094000000000005 71.3995 1.7789 -177.154972 -31.855818 -175.400036 -5.3861 -2.50207 -180.0 -3.59404 1.308354 -179.813826 -17.246165 27.623686 -92.315089 31.184186 18.698851 50.681976 -0.003194 -0.0 0.002143 0.00252 0.0 0.001764 1.990134 -14.052912 -2.881195 -109.332538 13.382692 -163.258222 13.866081 37.973252 -73.521277 171.422038 -14.376799 144.143617 -0.543618 0.536367 0.085778 -25.329061 21.313934 22.607849 -37.731862 36.427225 28.888578 4.417469 4.05067 -1.377486 -12.844021 28.996608 9.151343 -7.216288 26.20782 6.062064 0.000924 0.063766 0.020088 -156.120494 -13.744878 173.482317 -44.838122 -48.033931 -43.618897 -42.734499 -50.586189 -43.968624 80.165848 68.372191 -83.260832 -75.675463 -12.896499 -85.875922 -171.074957 16.320459 -122.546135 -155.188955 -31.87536 -142.519013 164.698152 -2.37206 -89.585298 46.745951 -16.364902 -12.445216 -159.643516 -69.973749 -102.398363 13.068987 39.21528 -8.699747 10.97472 25.789969 -7.640658 163.166372 -4.728855 -143.327024 31.708229 -66.108782 46.283887 148.967669 -44.794604 178.061822 135.82189 -11.891305 133.183706 155.655984 38.702125 146.303934 -0.001472 0.000395 -0.000736 -7.845337 -25.242932 162.09425 29.513395 -35.622732 104.830709 67.084859 -63.689604 163.695 -0.000145 -0.001356 0.000186 6.186083 -16.72486 1.904682 -2.959704 34.573349 -57.434965 83.756786 60.391861 -1.861554
